#N canvas 1282 27 732 663 10;
#X obj -56 -168 netreceive 3001;
#X obj -56 -95 r pad_on;
#X obj -56 -149 pack s 0;
#X msg -56 -130 \; \$1 \$2 \;;
#X floatatom -56 -78 5 0 0 0 - - -;
#X floatatom 15 -79 5 0 0 0 - - -;
#X floatatom 193 -138 5 0 0 0 - - -;
#X obj 15 -96 r pad_x;
#X obj 193 -155 r pad_y;
#X floatatom 314 -138 5 0 0 0 - - -;
#X obj 314 -155 r level;
#X floatatom 64 -79 5 0 0 0 - - -;
#X floatatom 257 -138 5 0 0 0 - - -;
#X obj 64 -96 r pad_w;
#X obj 257 -155 r pad_h;
#X obj 193 -116 /;
#X floatatom 193 -95 5 0 0 0 - - -;
#X obj 15 -58 /;
#X floatatom 15 -32 5 0 0 0 - - -;
#X obj 379 -160 loadbang;
#X obj 379 -109 soundfiler;
#N canvas 0 0 450 300 (subpatch) 0;
#X array sample-table 44104 float 0;
#X coords 0 1.02 44103 -1.02 200 130 1;
#X restore 379 -29 graph;
#X msg 379 -135 read samples/Korg_ER-1/fjutt.wav sample-table;
#X obj -31 307 tabplay~ sample-table;
#X obj -38 405 dac~;
#X obj -28 273 spigot;
#X obj 67 230 metro 200;
#X obj 67 204 loadbang;
#X floatatom 241 -95 5 0 0 0 - - -;
#X obj 193 -71 *;
#X floatatom 193 -50 5 0 0 0 - - -;
#X obj 185 52 pow;
#X floatatom 121 -47 5 0 0 0 - - -;
#X floatatom 185 138 5 0 0 0 - - -;
#X obj 195 23 t b f;
#X obj 195 -28 int;
#X connect 0 0 2 0;
#X connect 1 0 4 0;
#X connect 2 0 3 0;
#X connect 4 0 25 1;
#X connect 5 0 17 0;
#X connect 6 0 15 0;
#X connect 7 0 5 0;
#X connect 8 0 6 0;
#X connect 10 0 9 0;
#X connect 11 0 17 1;
#X connect 12 0 15 1;
#X connect 13 0 11 0;
#X connect 14 0 12 0;
#X connect 15 0 16 0;
#X connect 16 0 29 0;
#X connect 17 0 18 0;
#X connect 19 0 22 0;
#X connect 22 0 20 0;
#X connect 23 0 24 0;
#X connect 23 0 24 1;
#X connect 25 0 23 0;
#X connect 26 0 25 0;
#X connect 27 0 26 0;
#X connect 28 0 29 1;
#X connect 29 0 30 0;
#X connect 30 0 35 0;
#X connect 31 0 33 0;
#X connect 32 0 31 0;
#X connect 33 0 26 1;
#X connect 34 0 31 0;
#X connect 34 1 31 1;
#X connect 35 0 34 0;
