#N canvas 599 81 642 566 10;
#X obj 148 22 netreceive 3002;
#X obj 148 41 pack s 0;
#X obj 291 105 r pad_x;
#X msg 433 41 \; pd dsp 1;
#X obj 433 22 loadbang;
#X obj 260 22 loadbang;
#X obj 194 219 tabread scale;
#X obj 326 300 mtof;
#X obj 321 338 osc~;
#X obj 289 380 dac~;
#X obj 148 273 *~;
#X obj 165 144 adsr 1 2 30 80 30;
#X obj 148 105 r level;
#X obj 203 105 r pad_on;
#X floatatom 148 122 5 0 0 0 - - -;
#X floatatom 203 122 5 0 0 0 - - -;
#X obj 302 358 *~;
#X obj 323 22 table scale 8;
#X obj 291 200 int;
#X obj 414 235 r pad_y;
#X obj 326 281 +;
#X obj 291 219 * 12;
#X obj 414 293 osc~;
#X obj 370 303 *~;
#X obj 327 319 +~;
#X obj 370 284 *;
#X obj 264 200 + 1;
#X obj 264 181 % 7;
#X obj 291 181 / 7;
#X obj 291 124 * 8;
#X obj 291 143 + 21;
#X obj 414 254 r vibrato_amt;
#X obj 414 273 r vibrato_freq;
#X msg 148 60 \; \$1 \$2 \;;
#X msg 260 41 \; scale 1 0 2 4 5 7 9 11 \; vibrato_freq 5 \; vibrato_amt
30 \;;
#X obj 366 125 r key_offset;
#X obj 326 262 +;
#X obj 399 145 r scale_offset;
#X obj 291 162 +;
#X obj 366 245 -;
#X obj 373 224 t b f;
#X obj 373 204 tabread scale;
#X obj 399 165 + 1;
#X obj 347 105 r octave;
#X obj 326 239 +;
#X obj 326 215 t b f;
#X obj 326 195 * 12;
#X obj 194 264 - 24;
#X connect 0 0 1 0;
#X connect 1 0 33 0;
#X connect 2 0 29 0;
#X connect 4 0 3 0;
#X connect 5 0 34 0;
#X connect 6 0 47 0;
#X connect 7 0 24 0;
#X connect 8 0 16 1;
#X connect 10 0 16 0;
#X connect 11 0 10 1;
#X connect 12 0 14 0;
#X connect 13 0 15 0;
#X connect 14 0 10 0;
#X connect 15 0 11 0;
#X connect 16 0 9 1;
#X connect 16 0 9 0;
#X connect 18 0 21 0;
#X connect 19 0 25 0;
#X connect 20 0 7 0;
#X connect 21 0 44 0;
#X connect 22 0 23 1;
#X connect 23 0 24 1;
#X connect 24 0 8 0;
#X connect 25 0 23 0;
#X connect 26 0 6 0;
#X connect 27 0 26 0;
#X connect 28 0 18 0;
#X connect 29 0 30 0;
#X connect 30 0 38 0;
#X connect 31 0 25 1;
#X connect 32 0 22 0;
#X connect 35 0 39 0;
#X connect 36 0 20 0;
#X connect 37 0 42 0;
#X connect 37 0 38 1;
#X connect 38 0 27 0;
#X connect 38 0 28 0;
#X connect 39 0 36 1;
#X connect 40 0 39 0;
#X connect 40 1 39 1;
#X connect 41 0 40 0;
#X connect 42 0 41 0;
#X connect 43 0 46 0;
#X connect 44 0 36 0;
#X connect 45 0 44 0;
#X connect 45 1 44 1;
#X connect 46 0 45 0;
#X connect 47 0 20 1;
