#N canvas 1324 51 855 814 10;
#X obj -56 -168 netreceive 3001;
#X obj 88 395 dac~;
#X floatatom 252 266 4 0 999 0 - - -;
#X floatatom 328 266 5 0 0 0 - - -;
#N canvas 1692 50 515 241 delay 0;
#X obj 213 44 delread~ delay1;
#X obj 308 80 *~;
#X obj 246 23 inlet;
#X obj 326 24 inlet;
#X text 318 6 feedback;
#X text 8 6 audio in;
#X obj 14 22 inlet~;
#X obj 164 85 outlet~;
#X text 233 5 time (ms);
#X obj 165 23 inlet;
#X obj 165 62 *~;
#X text 154 5 wet level;
#X obj 90 23 inlet;
#X text 80 6 dry level;
#X obj 72 44 *~;
#X obj 165 116 delwrite~ delay1 5000;
#X connect 0 0 10 1;
#X connect 0 0 1 0;
#X connect 1 0 15 0;
#X connect 2 0 0 0;
#X connect 3 0 1 1;
#X connect 6 0 14 0;
#X connect 6 0 15 0;
#X connect 9 0 10 0;
#X connect 10 0 7 0;
#X connect 12 0 14 1;
#X connect 14 0 7 0;
#X restore 101 336 pd delay;
#X floatatom 183 266 5 0 0 0 - - -;
#X floatatom 114 266 5 0 0 0 - - -;
#N canvas 731 180 311 173 fm 0;
#X obj 171 65 *~;
#X obj 154 85 +~;
#X obj 154 106 osc~;
#X obj 171 44 osc~;
#X obj 136 126 *~;
#X obj 95 22 inlet;
#X obj 247 21 inlet;
#X text 16 7 level;
#X text 66 5 carrier freq;
#X text 163 6 mod freq;
#X text 236 6 mod index;
#X obj 171 23 inlet;
#X obj 136 146 outlet~;
#X obj 15 25 inlet~;
#X connect 0 0 1 1;
#X connect 1 0 2 0;
#X connect 2 0 4 1;
#X connect 3 0 0 0;
#X connect 4 0 12 0;
#X connect 5 0 1 0;
#X connect 6 0 0 1;
#X connect 11 0 3 0;
#X connect 13 0 4 0;
#X restore 102 229 pd fm;
#X obj 97 175 *~;
#X obj -43 158 adsr 1 2 30 80 30;
#X obj 414 -149 loadbang;
#X text 60 -171 <- route messages from;
#X text 82 -158 socket on port 3001;
#X text 480 -149 <- Automatically;
#X text 489 -137 start audio generation;
#X text -57 -103 messages are: level - the master level control pad_on
- whether the xy pad is pressed pad_x \, pad_y - the x and y coordinates
of the pad fm_carrier_freq - fm synth carrier frequency fm_mod_freq
- fm synth modulation frequency fm_mod_index - fm modulation index
;
#X obj 153 94 r level;
#X obj 83 93 r pad_on;
#X obj 154 129 r fm_carrier_freq;
#X obj 154 163 r fm_mod_freq;
#X obj 154 197 r fm_mod_index;
#X floatatom 153 111 5 0 0 0 - - -;
#X obj -56 -149 pack s 0;
#X msg -56 -130 \; \$1 \$2 \;;
#X msg 414 -130 \; pd dsp 1;
#X obj -32 22 r pad_x;
#X obj -32 45 s fm_carrier_freq;
#X obj 106 23 r pad_y;
#X obj 106 46 s fm_mod_freq;
#X obj 114 249 r dly_dry;
#X obj 183 249 r dly_wet;
#X obj 328 249 r dly_fbk;
#X obj 252 249 r dly_time;
#X floatatom 83 110 5 0 0 0 - - -;
#X floatatom 154 146 5 0 0 0 - - -;
#X floatatom 154 180 5 0 0 0 - - -;
#X floatatom 154 214 5 0 0 0 - - -;
#X text 194 317 comment;
#X obj 416 45 f;
#X obj 445 45 + 1;
#X floatatom 416 76 5 0 0 0 - - -;
#X obj 415 103 % 16;
#X floatatom 416 142 5 0 0 0 - - -;
#X obj 412 4 metro 500;
#X obj 372 -33 bng 15 250 50 0 empty empty empty 17 7 0 10 -262144
-1 -1;
#X msg 427 -40 stop;
#X obj 471 356 osc~;
#X obj 471 380 dac~;
#X floatatom 471 313 5 0 0 0 - - -;
#X obj 471 334 mtof;
#X obj 182 394 table notes 16;
#X msg 182 414 \; notes 0 12 3 5 7 12 0 5 3;
#X obj 471 226 tabread notes;
#X floatatom 470 248 5 0 0 0 - - -;
#X floatatom 468 203 5 0 0 0 - - -;
#X obj 468 283 + 48;
#X connect 0 0 22 0;
#X connect 2 0 4 3;
#X connect 3 0 4 4;
#X connect 4 0 1 0;
#X connect 4 0 1 1;
#X connect 5 0 4 2;
#X connect 6 0 4 1;
#X connect 7 0 4 0;
#X connect 8 0 7 0;
#X connect 9 0 8 1;
#X connect 10 0 24 0;
#X connect 16 0 21 0;
#X connect 17 0 33 0;
#X connect 18 0 34 0;
#X connect 19 0 35 0;
#X connect 20 0 36 0;
#X connect 21 0 8 0;
#X connect 22 0 23 0;
#X connect 25 0 26 0;
#X connect 27 0 28 0;
#X connect 29 0 6 0;
#X connect 30 0 5 0;
#X connect 31 0 3 0;
#X connect 32 0 2 0;
#X connect 33 0 9 0;
#X connect 34 0 7 1;
#X connect 35 0 7 2;
#X connect 36 0 7 3;
#X connect 38 0 39 0;
#X connect 38 0 40 0;
#X connect 39 0 38 1;
#X connect 40 0 41 0;
#X connect 41 0 42 0;
#X connect 42 0 54 0;
#X connect 43 0 38 0;
#X connect 44 0 43 0;
#X connect 45 0 43 0;
#X connect 46 0 47 0;
#X connect 46 0 47 1;
#X connect 48 0 49 0;
#X connect 49 0 46 0;
#X connect 52 0 53 0;
#X connect 53 0 55 0;
#X connect 54 0 52 0;
#X connect 55 0 48 0;
